<?xml version="1.0" standalone="no"?><svg data-noselect=""
  viewBox="123.44258354223001 90.24976292006 498.49829836889995 374"
  width="498.49829836889995"
  height="374"
  ref="svg_canvas"
  preserveAspectRatio="none"
  version="1.1" xmlns="http://www.w3.org/2000/svg"
  style="background: #ffffff;">
    <defs></defs>
    <g id="shape_g9mOqUylVm" class=""  ref="shape_g9mOqUylVm" key="shape_g9mOqUylVm" transform="translate(203.44258354223,183.67106598592) rotate(0,75.249149184449,60.29731235847) scale(1,1)" style="cursor:move;display:inline;opacity:1;" filter="">
            <g style="display:inline"><rect fill="rgba(0,0,0,0)" width="170.49829836889833" height="140.5946247169391" x="-10" y="-10"></rect><svg version="1.1" id="图层_1" xmlns="http://www.w3.org/2000/svg" xmlns:xlink="http://www.w3.org/1999/xlink" x="0px" y="0px" viewBox="0 0 476.1 381.5" enable-background="new 0 0 476.1 381.5" xml:space="preserve" width="150.49829836889833" height="120.5946247169391" class="style-removed" preserveAspectRatio="none" data-parent="shape_g9mOqUylVm">
<g>
	<path fill="#0CB1EB" d="M476.1,204.7c0,0-16.5-53.3-95.1-41.8c0,0,35.3-95.8-69.4-162.9c0,0,5.4,49.4-24.1,74.4
		c0,0-109.6-78.2-287.5-57.5c0,0,124.2,42.2,146.7,166.4c0,0,47-42.9,120.7-30.7c0,0-195.8,59.3-212.7,229
		C54.7,381.5,162.4,161.6,476.1,204.7z" stroke-width="0"></path>
</g>
</svg></g>
        </g><g id="shape_q4El627UUK" class="brand_name"  ref="shape_q4El627UUK" key="shape_q4El627UUK" transform="translate(172.88088191113002,-37.8670801458) rotate(0,315.12484614636,336.69554) scale(1,1)" style="cursor:move;display:inline;opacity:1;" filter="">
            <g style="display:inline"><svg xmlns="http://www.w3.org/2000/svg" version="1.1" xmlns:xlink="http://www.w3.org/1999/xlink" width="657.24" height="673.39108" viewBox="0 0 657.24 673.39108" preserveAspectRatio="none" data-parent="shape_q4El627UUK"><rect fill="rgba(0,0,0,0)" width="273" height="96" x="96.06" y="288.69554"></rect><g data-width="272.8104" transform="translate(96.06, 0)"><path d="M3.55-11.05L43.90-52.64L3.55-52.64L3.55-64.07L59.17-64.07L59.17-52.26L20.17-11.43L59.17-11.43L59.17 0L3.55 0L3.55-11.05Z" transform="translate(0 370.69554) skewX(0)" fill="#0cb1eb" stroke="#0cb1eb" stroke-width="0.16" data-glyph-w="62.823240000000006" data-glyph-h="96.06" data-glyph-ascender="82.51554" data-glyph-descender="-13.54446"></path><path d="M5.76-28.05L5.76-64.07L19.31-64.07L19.31-28.05Q19.60-21.23 19.88-19.02L19.88-19.02Q20.56-14.60 24.11-13.02Q27.67-11.43 36.60-11.43L36.60-11.43L49.66-11.43L49.66 0L35.16 0Q24.88 0 20.27-1.15L20.27-1.15Q9.70-4.23 6.82-14.60L6.82-14.60Q5.76-18.64 5.76-28.05L5.76-28.05Z" transform="translate(62.823240000000006 370.69554) skewX(0)" fill="#0cb1eb" stroke="#0cb1eb" stroke-width="0.16" data-glyph-w="51.10392" data-glyph-h="96.06" data-glyph-ascender="82.51554" data-glyph-descender="-13.54446"></path><path d="M20.17 0L6.53 0L6.53-64.07L20.17-64.07L20.17 0Z" transform="translate(113.92716000000001 370.69554) skewX(0)" fill="#0cb1eb" stroke="#0cb1eb" stroke-width="0.16" data-glyph-w="26.608620000000002" data-glyph-h="96.06" data-glyph-ascender="82.51554" data-glyph-descender="-13.54446"></path><path d="M45.72 0L19.60-46.97L19.60 0L6.53 0L6.53-64.07L24.02-64.07L49.47-16.33L49.47-64.07L62.44-64.07L62.44 0L45.72 0Z" transform="translate(140.53578000000002 370.69554) skewX(0)" fill="#0cb1eb" stroke="#0cb1eb" stroke-width="0.16" data-glyph-w="68.97108" data-glyph-h="96.06" data-glyph-ascender="82.51554" data-glyph-descender="-13.54446"></path><path d="M6.53-64.07L20.17-64.07L20.17 0L6.53 0L6.53-64.07ZM43.90 0L20.65-32.37L45.15-64.07L63.11-64.07L36.31-32.37L61.86 0L43.90 0Z" transform="translate(209.50686000000002 370.69554) skewX(0)" fill="#0cb1eb" stroke="#0cb1eb" stroke-width="0.16" data-glyph-w="63.303540000000005" data-glyph-h="96.06" data-glyph-ascender="82.51554" data-glyph-descender="-13.54446"></path></g></svg></g>
        </g>
  </svg>